<?xml version="1.0" standalone="no"?><!DOCTYPE svg PUBLIC "-//W3C//DTD SVG 1.1//EN" "http://www.w3.org/Graphics/SVG/1.1/DTD/svg11.dtd"><svg width="960" height="700" version="1.1" xmlns:xlink="http://www.w3.org/1999/xlink" xmlns="http://www.w3.org/2000/svg"><defs xmlns="http://www.w3.org/1999/xhtml"><style type="text/css"><![CDATA[
circle, path { cursor: pointer; }
circle { fill: none; pointer-events: all; }]]></style></defs><defs xmlns="http://www.w3.org/1999/xhtml"><style type="text/css"></style></defs><g transform="translate(480,350)"><circle r="113.33333333333333"><title>zoom out</title></circle><path d="M1.3818098050379301e-14,-225.66666666666666A225.66666666666666,225.66666666666666 0 0,1 52.226210669770474,-219.54012700078587L26.228820720416486,-110.256489187987A113.33333333333333,113.33333333333333 0 0,0 6.9396651951683345e-15,-113.33333333333333Z" style="fill: rgb(140, 206, 255);"/><path d="M53.68864009681788,-219.187076190634A225.66666666666666,225.66666666666666 0 0,1 149.7629738449485,-168.8090522145116L75.21331035049113,-84.77854911807083A113.33333333333333,113.33333333333333 0 0,0 26.963275676393025,-110.07918154330217Z" style="fill: rgb(129, 196, 255);"/><path d="M150.88503113638833,-167.8068884861869A225.66666666666666,225.66666666666666 0 0,1 221.31029929658948,-44.12704238557613L111.14549743107891,-22.161291596892003A113.33333333333333,113.33333333333333 0 0,0 75.77682509065293,-84.27524680251632Z" style="fill: rgb(123, 191, 255);"/><path d="M221.5995594116154,-42.650670721834885A225.66666666666666,225.66666666666666 0 0,1 36.304554583626846,222.72724072490303L18.232715743623526,111.85710760187153A113.33333333333333,113.33333333333333 0 0,0 111.2907683898807,-21.419834631349868Z" style="fill: rgb(98, 168, 233);"/><path d="M34.818910546087494,222.96431982007346A225.66666666666666,225.66666666666666 0 0,1 13.477016936500883,225.26387739479605L6.7683689193652885,113.13104625440275A113.33333333333333,113.33333333333333 0 0,0 17.486602046779538,111.9761724354874Z" style="fill: rgb(149, 215, 255);"/><path d="M11.97496938983021,225.34871766344062A225.66666666666666,225.66666666666666 0 0,1 -100.81562724109263,201.8951553366982L-50.63118650217355,101.39490814546143A113.33333333333333,113.33333333333333 0 0,0 6.014017123400697,113.17365436568657Z" style="fill: rgb(128, 195, 255);"/><path d="M-102.15934463425388,201.21856959123872A225.66666666666666,225.66666666666666 0 0,1 -1.5044333004363633,-225.6616518704252L-0.7555499588602119,-113.33081482414264A113.33333333333333,113.33333333333333 0 0,0 -51.30602241602115,101.05511619057779Z" style="fill: rgb(76, 150, 213);"/><path d="M80.6519157732109,-329.2662577339362A339,339 0 0,1 85.55189629459665,-328.0272443569262L57.20284118026128,-219.32991756411977A226.66666666666666,226.66666666666666 0 0,0 53.92655135278605,-220.15836308660434Z" style="fill-opacity: 1; fill: rgb(159, 225, 255);"/><path d="M86.86331735881208,-327.68241346984473A339,339 0 0,1 194.83916961958366,-277.41430745718776L130.27594428841385,-185.48842583174795A226.66666666666666,226.66666666666666 0 0,0 58.07970088888123,-219.09935217256088Z" style="fill-opacity: 1; fill: rgb(134, 201, 255);"/><path d="M195.94726517905016,-276.63273354549165A339,339 0 0,1 197.45727805799294,-275.5569330318663L132.02649860318112,-184.2465235611299A226.66666666666666,226.66666666666666 0 0,0 131.01685380703452,-184.96583953877516Z" style="fill-opacity: 1; fill: rgb(161, 227, 255);"/><path d="M198.55792319473056,-274.76490157331864A339,339 0 0,1 199.99408175679713,-273.7213313979302L133.722689866885,-183.01917930245088A226.66666666666666,226.66666666666666 0 0,0 132.76242652155042,-183.71694500477548Z" style="fill-opacity: 1; fill: rgb(161, 227, 255);"/><path d="M201.0873642121762,-272.91916743644003A339,339 0 0,1 225.65171708232833,-252.9867636414934L150.87823757717135,-169.1553581870359A226.66666666666666,226.66666666666666 0 0,0 134.4536948517992,-182.48282581787535Z" style="fill-opacity: 1; fill: rgb(150, 216, 255);"/><path d="M226.66185622704128,-252.08213528870323A339,339 0 0,1 233.3971086953276,-245.85928831887037L156.057063827751,-164.38969130465276A226.66666666666666,226.66666666666666 0 0,0 151.55365018130587,-168.55049360503264Z" style="fill-opacity: 1; fill: rgb(157, 223, 255);"/><path d="M234.3786760517261,-244.92373550197217A339,339 0 0,1 246.68452161236806,-232.52472297989544L164.94146971131786,-155.4737577446695A226.66666666666666,226.66666666666666 0 0,0 156.71337238463497,-163.76414959817214Z" style="fill-opacity: 1; fill: rgb(154, 220, 255);"/><path d="M247.61264455048433,-231.53612732944183A339,339 0 0,1 251.20570936580347,-227.63279988179096L167.964486104962,-152.20285537818864A226.66666666666666,226.66666666666666 0 0,0 165.56204355391282,-154.81274983679492Z" style="fill-opacity: 1; fill: rgb(159, 224, 255);"/><path d="M252.11422849425398,-226.6261586638822A339,339 0 0,1 266.0399476883341,-210.10413188223703L177.88315086338957,-140.48260538831974A226.66666666666666,226.66666666666666 0 0,0 168.5719521888817,-151.52978160416902Z" style="fill-opacity: 1; fill: rgb(153, 218, 255);"/><path d="M266.8782336580104,-209.0382940984269A339,339 0 0,1 273.92424753078694,-199.71606498900417L183.15485577279756,-133.53679861605A226.66666666666666,226.66666666666666 0 0,0 178.44365672315345,-139.7699508229403Z" style="fill-opacity: 1; fill: rgb(156, 222, 255);"/><path d="M274.7209182693816,-198.61877319434774A339,339 0 0,1 281.90456873158496,-188.2838658203594L188.49076375366545,-125.89285030269852A226.66666666666666,226.66666666666666 0 0,0 183.68753630597786,-132.8031128536445Z" style="fill-opacity: 1; fill: rgb(156, 221, 255);"/><path d="M282.65544695296387,-187.1547442834945A339,339 0 0,1 294.569022400924,-167.77988866894614L196.9586383801655,-112.18320972948217A226.66666666666666,226.66666666666666 0 0,0 188.99282588792076,-125.1378821167908Z" style="fill-opacity: 1; fill: rgb(152, 218, 255);"/><path d="M295.2377836169119,-166.6002734840898A339,339 0 0,1 296.4101098659469,-164.50546121408036L198.18965064783075,-109.99381870754634A226.66666666666666,226.66666666666666 0 0,0 197.40579435545732,-111.39447981237076Z" style="fill-opacity: 1; fill: rgb(161, 226, 255);"/><path d="M297.06575867836244,-163.31850789438687A339,339 0 0,1 308.02229315888394,-141.57424524659342L205.9539423284573,-94.66124559260918A226.66666666666666,226.66666666666666 0 0,0 198.62803923430332,-109.20018226959988Z" style="fill-opacity: 1; fill: rgb(152, 217, 255);"/><path d="M308.5861244546865,-140.34102676707454A339,339 0 0,1 322.1466663693799,-105.55816096870699L215.39796768060796,-70.57969464967626A226.66666666666666,226.66666666666666 0 0,0 206.33093867176677,-93.83667473118061Z" style="fill-opacity: 1; fill: rgb(148, 214, 255);"/><path d="M322.56632071740717,-104.26873327529603A339,339 0 0,1 332.63138334443,-65.40155055020394L222.40839790974667,-43.72965031872043A226.66666666666666,226.66666666666666 0 0,0 215.67856252491333,-69.71754043972595Z" style="fill-opacity: 1; fill: rgb(148, 214, 255);"/><path d="M332.8903278014961,-64.07050535318476A339,339 0 0,1 337.1604576124852,35.26791491624661L225.43668748917395,23.581300042328117A226.66666666666666,226.66666666666666 0 0,0 222.5815367797614,-42.839669262699736Z" style="fill-opacity: 1; fill: rgb(137, 204, 255);"/><path d="M337.01668904894643,36.616271007378074A339,339 0 0,1 313.33625052838437,129.38853931014734L209.5070308351046,86.51347761150461A226.66666666666666,226.66666666666666 0 0,0 225.34055904944302,24.482855737479934Z" style="fill-opacity: 1; fill: rgb(138, 204, 255);"/><path d="M312.8161910646251,130.6408458630759A339,339 0 0,1 290.42957874948684,174.84753297486245L194.19086878038453,116.90887160561107A226.66666666666666,226.66666666666666 0 0,0 209.1593017934563,87.35081139320708Z" style="fill-opacity: 1; fill: rgb(146, 212, 255);"/><path d="M289.7278670490942,176.0078494135486A339,339 0 0,1 281.71667905002096,188.56487675340674L188.36513446805728,126.08074355193371A226.66666666666666,226.66666666666666 0 0,0 193.72168101611015,117.68469773963918Z" style="fill-opacity: 1; fill: rgb(155, 220, 255);"/><path d="M280.960167823937,189.69023194762863A339,339 0 0,1 218.24813664486163,259.40075337409064L145.92795763864888,173.4439648912307A226.66666666666666,226.66666666666666 0 0,0 187.85930591964322,126.83319343597587Z" style="fill-opacity: 1; fill: rgb(138, 204, 255);"/><path d="M217.20879041553926,260.2716683894318A339,339 0 0,1 173.04136826994963,291.5093220932457L115.70120985601352,194.912821065297A226.66666666666666,226.66666666666666 0 0,0 145.2330162070469,174.02628761535263Z" style="fill-opacity: 1; fill: rgb(145, 211, 255);"/><path d="M171.87394976190654,292.1991536490851A339,339 0 0,1 141.90631943882138,307.86944717416696L94.88328143402019,205.85174442323847A226.66666666666666,226.66666666666666 0 0,0 114.92063504237605,195.37406537008638Z" style="fill-opacity: 1; fill: rgb(149, 215, 255);"/><path d="M140.67370968502104,308.4346079859626A339,339 0 0,1 96.18721464656136,325.06771562020174L64.31396849524259,217.35107829079368A226.66666666666666,226.66666666666666 0 0,0 94.05911758683804,206.22962972512738Z" style="fill-opacity: 1; fill: rgb(146, 212, 255);"/><path d="M94.88617775477556,325.4498629145342A339,339 0 0,1 53.64485254565088,334.7285912427491L35.86873129896027,223.81066081127761A226.66666666666666,226.66666666666666 0 0,0 63.444051989427116,217.6065946724516Z" style="fill-opacity: 1; fill: rgb(147, 213, 255);"/><path d="M52.30551259286703,334.94049225556086A339,339 0 0,1 42.37239573999814,336.34146351476346L28.331592038543494,224.88908081616438A226.66666666666666,226.66666666666666 0 0,0 34.973204093559076,223.9523448709748Z" style="fill-opacity: 1; fill: rgb(157, 222, 255);"/><path d="M41.02669449486454,336.50826191763116A339,339 0 0,1 33.17436470233605,337.37288202609943L22.18148279015586,225.57872151204288A226.66666666666666,226.66666666666666 0 0,0 27.431811461659674,225.00060777186744Z" style="fill-opacity: 1; fill: rgb(158, 223, 255);"/><path d="M31.824611378309086,337.50288015159157A339,339 0 0,1 24.83060576626307,338.0893979663965L16.602568260628207,226.0578078831363A226.66666666666666,226.66666666666666 0 0,0 21.278992858653076,225.66564257923525Z" style="fill-opacity: 1; fill: rgb(158, 224, 255);"/><path d="M23.47805313610024,338.1860154130245A339,339 0 0,1 19.34292847874493,338.4477080995913L12.933324843211949,226.29738594662936A226.66666666666666,226.66666666666666 0 0,0 15.698206620008026,226.1224095190331Z" style="fill-opacity: 1; fill: rgb(160, 225, 255);"/><path d="M17.98898651323091,338.5223720291272A339,339 0 0,1 -82.50643075813693,328.80646113413394L-55.16654170652223,219.8509277986343A226.66666666666666,226.66666666666666 0 0,0 12.028034246801393,226.34730873137315Z" style="fill-opacity: 1; fill: rgb(137, 203, 255);"/><path d="M-83.82099304484136,328.47380584298753A339,339 0 0,1 -104.33820437141489,322.5438561010717L-69.76399112346326,215.66354193581984A226.66666666666666,226.66666666666666 0 0,0 -56.045501740896874,219.62850341517355Z" style="fill-opacity: 1; fill: rgb(153, 218, 255);"/><path d="M-105.6275416508321,322.1239240491177A339,339 0 0,1 -152.2550478100984,302.885127426793L-101.80278516309431,202.51906258625294A226.66666666666666,226.66666666666666 0 0,0 -70.6260848796124,215.38276140943955Z" style="fill-opacity: 1; fill: rgb(146, 212, 255);"/><path d="M-153.46536705027503,302.27368578181654A339,339 0 0,1 -157.8851250000864,299.9888119642249L-105.56724188796336,200.58248980892128A226.66666666666666,226.66666666666666 0 0,0 -102.6120448320423,202.11023238115558Z" style="fill-opacity: 1; fill: rgb(159, 225, 255);"/><path d="M-159.08381396874927,299.3548732410354A339,339 0 0,1 -168.6280079923293,294.08433300762374L-112.75029049634603,196.63455894315058A226.66666666666666,226.66666666666666 0 0,0 -106.36872517084514,200.15861730964016Z" style="fill-opacity: 1; fill: rgb(156, 222, 255);"/><path d="M-169.80299316519748,293.40747010282456A339,339 0 0,1 -190.53129936832013,280.3904847904428L-127.39555906633008,187.4783969100306A226.66666666666666,226.66666666666666 0 0,0 -113.5359246335637,196.18198590945988Z" style="fill-opacity: 1; fill: rgb(152, 217, 255);"/><path d="M-191.65133406828986,279.6261185044143A339,339 0 0,1 -207.2305643634745,268.2843513766612L-138.5612426422445,179.3838337621727A226.66666666666666,226.66666666666666 0 0,0 -128.14445149108857,186.96731620747465Z" style="fill-opacity: 1; fill: rgb(153, 219, 255);"/><path d="M-208.30204106497928,267.4532850577156A339,339 0 0,1 -217.1391544867614,260.32976700480174L-145.1864553107156,174.06513428049672A226.66666666666666,226.66666666666666 0 0,0 -139.27766757540402,178.82815520083247Z" style="fill-opacity: 1; fill: rgb(156, 222, 255);"/><path d="M-218.17873366701224,259.45913006764465A339,339 0 0,1 -224.69297700093315,253.83866152825917L-150.2371920950192,169.72496542695794A226.66666666666666,226.66666666666666 0 0,0 -145.88155250105046,173.48299748869061Z" style="fill-opacity: 1; fill: rgb(157, 223, 255);"/><path d="M-225.7065313980167,252.937861310394A339,339 0 0,1 -271.96648601529165,202.3739866793511L-181.84583135732382,135.31397339425638A226.66666666666666,226.66666666666666 0 0,0 -150.91488825039463,169.12266046319363Z" style="fill-opacity: 1; fill: rgb(142, 208, 255);"/><path d="M-272.77380407436766,201.28450464652883A339,339 0 0,1 -309.0695354506051,139.27319288487345L-206.6541633298048,93.12268550807664A226.66666666666666,226.66666666666666 0 0,0 -182.38563104284168,134.5855094981707Z" style="fill-opacity: 1; fill: rgb(142, 208, 255);"/><path d="M-309.6241541835781,138.03580385575273A339,339 0 0,1 -328.4071493312761,84.08177131878772L-219.5839346561138,56.219866761824626A226.66666666666666,226.66666666666666 0 0,0 -207.02499984742684,92.29532607857607Z" style="fill-opacity: 1; fill: rgb(144, 210, 255);"/><path d="M-328.74084826598806,82.76747357119586A339,339 0 0,1 -338.9985531448167,0.9904371362666601L-226.66569925120484,0.6622391864909821A226.66666666666666,226.66666666666666 0 0,0 -219.80705685434796,55.341083607092614Z" style="fill-opacity: 1; fill: rgb(140, 206, 255);"/><path d="M-338.99980289798793,-0.3655613838173088A339,339 0 0,1 -1.3559963840028058,-338.997288003616L-0.9066642488907649,-226.6648533357511A226.66666666666666,226.66666666666666 0 0,0 -226.6665348777107,-0.2444264906546411Z" style="fill-opacity: 1; fill: rgb(98, 168, 233);"/></g></svg>